<?xml version="1.0" encoding="UTF-8" standalone="no"?>
<!DOCTYPE svg PUBLIC "-//W3C//DTD SVG 1.1//EN"
 "http://www.w3.org/Graphics/SVG/1.1/DTD/svg11.dtd">
<!-- Generated by graphviz version 2.40.1 (20161225.0304)
 -->
<!-- Title: G Pages: 1 -->
<svg width="402pt" height="1511pt"
 viewBox="0.00 0.00 401.69 1511.00" xmlns="http://www.w3.org/2000/svg" xmlns:xlink="http://www.w3.org/1999/xlink">
<g id="graph0" class="graph" transform="scale(1 1) rotate(0) translate(4 1507)">
<title>G</title>
<polygon fill="#ffffff" stroke="transparent" points="-4,4 -4,-1507 397.6865,-1507 397.6865,4 -4,4"/>
<!-- 4600999160 -->
<g id="node1" class="node">
<title>4600999160</title>
<polygon fill="none" stroke="#000000" points="32.6792,-1458.5 32.6792,-1502.5 361.0073,-1502.5 361.0073,-1458.5 32.6792,-1458.5"/>
<text text-anchor="middle" x="96.8604" y="-1476.3" font-family="Times,serif" font-size="14.00" fill="#000000">input_1: InputLayer</text>
<polyline fill="none" stroke="#000000" points="161.0415,-1458.5 161.0415,-1502.5 "/>
<text text-anchor="middle" x="188.876" y="-1487.3" font-family="Times,serif" font-size="14.00" fill="#000000">input:</text>
<polyline fill="none" stroke="#000000" points="161.0415,-1480.5 216.7104,-1480.5 "/>
<text text-anchor="middle" x="188.876" y="-1465.3" font-family="Times,serif" font-size="14.00" fill="#000000">output:</text>
<polyline fill="none" stroke="#000000" points="216.7104,-1458.5 216.7104,-1502.5 "/>
<text text-anchor="middle" x="288.8589" y="-1487.3" font-family="Times,serif" font-size="14.00" fill="#000000">(None, None, None, 3)</text>
<polyline fill="none" stroke="#000000" points="216.7104,-1480.5 361.0073,-1480.5 "/>
<text text-anchor="middle" x="288.8589" y="-1465.3" font-family="Times,serif" font-size="14.00" fill="#000000">(None, None, None, 3)</text>
</g>
<!-- 4663550080 -->
<g id="node2" class="node">
<title>4663550080</title>
<polygon fill="none" stroke="#000000" points="18.2827,-1377.5 18.2827,-1421.5 375.4038,-1421.5 375.4038,-1377.5 18.2827,-1377.5"/>
<text text-anchor="middle" x="93.3604" y="-1395.3" font-family="Times,serif" font-size="14.00" fill="#000000">block1_conv1: Conv2D</text>
<polyline fill="none" stroke="#000000" points="168.438,-1377.5 168.438,-1421.5 "/>
<text text-anchor="middle" x="196.2725" y="-1406.3" font-family="Times,serif" font-size="14.00" fill="#000000">input:</text>
<polyline fill="none" stroke="#000000" points="168.438,-1399.5 224.1069,-1399.5 "/>
<text text-anchor="middle" x="196.2725" y="-1384.3" font-family="Times,serif" font-size="14.00" fill="#000000">output:</text>
<polyline fill="none" stroke="#000000" points="224.1069,-1377.5 224.1069,-1421.5 "/>
<text text-anchor="middle" x="299.7554" y="-1406.3" font-family="Times,serif" font-size="14.00" fill="#000000">(None, None, None, 3)</text>
<polyline fill="none" stroke="#000000" points="224.1069,-1399.5 375.4038,-1399.5 "/>
<text text-anchor="middle" x="299.7554" y="-1384.3" font-family="Times,serif" font-size="14.00" fill="#000000">(None, None, None, 64)</text>
</g>
<!-- 4600999160&#45;&gt;4663550080 -->
<g id="edge1" class="edge">
<title>4600999160&#45;&gt;4663550080</title>
<path fill="none" stroke="#000000" d="M196.8433,-1458.3664C196.8433,-1450.1516 196.8433,-1440.6579 196.8433,-1431.7252"/>
<polygon fill="#000000" stroke="#000000" points="200.3434,-1431.6068 196.8433,-1421.6068 193.3434,-1431.6069 200.3434,-1431.6068"/>
</g>
<!-- 4663550864 -->
<g id="node3" class="node">
<title>4663550864</title>
<polygon fill="none" stroke="#000000" points="18.2827,-1296.5 18.2827,-1340.5 375.4038,-1340.5 375.4038,-1296.5 18.2827,-1296.5"/>
<text text-anchor="middle" x="93.3604" y="-1314.3" font-family="Times,serif" font-size="14.00" fill="#000000">block1_conv2: Conv2D</text>
<polyline fill="none" stroke="#000000" points="168.438,-1296.5 168.438,-1340.5 "/>
<text text-anchor="middle" x="196.2725" y="-1325.3" font-family="Times,serif" font-size="14.00" fill="#000000">input:</text>
<polyline fill="none" stroke="#000000" points="168.438,-1318.5 224.1069,-1318.5 "/>
<text text-anchor="middle" x="196.2725" y="-1303.3" font-family="Times,serif" font-size="14.00" fill="#000000">output:</text>
<polyline fill="none" stroke="#000000" points="224.1069,-1296.5 224.1069,-1340.5 "/>
<text text-anchor="middle" x="299.7554" y="-1325.3" font-family="Times,serif" font-size="14.00" fill="#000000">(None, None, None, 64)</text>
<polyline fill="none" stroke="#000000" points="224.1069,-1318.5 375.4038,-1318.5 "/>
<text text-anchor="middle" x="299.7554" y="-1303.3" font-family="Times,serif" font-size="14.00" fill="#000000">(None, None, None, 64)</text>
</g>
<!-- 4663550080&#45;&gt;4663550864 -->
<g id="edge2" class="edge">
<title>4663550080&#45;&gt;4663550864</title>
<path fill="none" stroke="#000000" d="M196.8433,-1377.3664C196.8433,-1369.1516 196.8433,-1359.6579 196.8433,-1350.7252"/>
<polygon fill="#000000" stroke="#000000" points="200.3434,-1350.6068 196.8433,-1340.6068 193.3434,-1350.6069 200.3434,-1350.6068"/>
</g>
<!-- 4663459456 -->
<g id="node4" class="node">
<title>4663459456</title>
<polygon fill="none" stroke="#000000" points="3.5,-1215.5 3.5,-1259.5 390.1865,-1259.5 390.1865,-1215.5 3.5,-1215.5"/>
<text text-anchor="middle" x="93.3604" y="-1233.3" font-family="Times,serif" font-size="14.00" fill="#000000">block1_pool: MaxPooling2D</text>
<polyline fill="none" stroke="#000000" points="183.2207,-1215.5 183.2207,-1259.5 "/>
<text text-anchor="middle" x="211.0552" y="-1244.3" font-family="Times,serif" font-size="14.00" fill="#000000">input:</text>
<polyline fill="none" stroke="#000000" points="183.2207,-1237.5 238.8896,-1237.5 "/>
<text text-anchor="middle" x="211.0552" y="-1222.3" font-family="Times,serif" font-size="14.00" fill="#000000">output:</text>
<polyline fill="none" stroke="#000000" points="238.8896,-1215.5 238.8896,-1259.5 "/>
<text text-anchor="middle" x="314.5381" y="-1244.3" font-family="Times,serif" font-size="14.00" fill="#000000">(None, None, None, 64)</text>
<polyline fill="none" stroke="#000000" points="238.8896,-1237.5 390.1865,-1237.5 "/>
<text text-anchor="middle" x="314.5381" y="-1222.3" font-family="Times,serif" font-size="14.00" fill="#000000">(None, None, None, 64)</text>
</g>
<!-- 4663550864&#45;&gt;4663459456 -->
<g id="edge3" class="edge">
<title>4663550864&#45;&gt;4663459456</title>
<path fill="none" stroke="#000000" d="M196.8433,-1296.3664C196.8433,-1288.1516 196.8433,-1278.6579 196.8433,-1269.7252"/>
<polygon fill="#000000" stroke="#000000" points="200.3434,-1269.6068 196.8433,-1259.6068 193.3434,-1269.6069 200.3434,-1269.6068"/>
</g>
<!-- 4663840952 -->
<g id="node5" class="node">
<title>4663840952</title>
<polygon fill="none" stroke="#000000" points="14.7827,-1134.5 14.7827,-1178.5 378.9038,-1178.5 378.9038,-1134.5 14.7827,-1134.5"/>
<text text-anchor="middle" x="89.8604" y="-1152.3" font-family="Times,serif" font-size="14.00" fill="#000000">block2_conv1: Conv2D</text>
<polyline fill="none" stroke="#000000" points="164.938,-1134.5 164.938,-1178.5 "/>
<text text-anchor="middle" x="192.7725" y="-1163.3" font-family="Times,serif" font-size="14.00" fill="#000000">input:</text>
<polyline fill="none" stroke="#000000" points="164.938,-1156.5 220.6069,-1156.5 "/>
<text text-anchor="middle" x="192.7725" y="-1141.3" font-family="Times,serif" font-size="14.00" fill="#000000">output:</text>
<polyline fill="none" stroke="#000000" points="220.6069,-1134.5 220.6069,-1178.5 "/>
<text text-anchor="middle" x="299.7554" y="-1163.3" font-family="Times,serif" font-size="14.00" fill="#000000">(None, None, None, 64)</text>
<polyline fill="none" stroke="#000000" points="220.6069,-1156.5 378.9038,-1156.5 "/>
<text text-anchor="middle" x="299.7554" y="-1141.3" font-family="Times,serif" font-size="14.00" fill="#000000">(None, None, None, 128)</text>
</g>
<!-- 4663459456&#45;&gt;4663840952 -->
<g id="edge4" class="edge">
<title>4663459456&#45;&gt;4663840952</title>
<path fill="none" stroke="#000000" d="M196.8433,-1215.3664C196.8433,-1207.1516 196.8433,-1197.6579 196.8433,-1188.7252"/>
<polygon fill="#000000" stroke="#000000" points="200.3434,-1188.6068 196.8433,-1178.6068 193.3434,-1188.6069 200.3434,-1188.6068"/>
</g>
<!-- 4663868160 -->
<g id="node6" class="node">
<title>4663868160</title>
<polygon fill="none" stroke="#000000" points="14.7827,-1053.5 14.7827,-1097.5 378.9038,-1097.5 378.9038,-1053.5 14.7827,-1053.5"/>
<text text-anchor="middle" x="89.8604" y="-1071.3" font-family="Times,serif" font-size="14.00" fill="#000000">block2_conv2: Conv2D</text>
<polyline fill="none" stroke="#000000" points="164.938,-1053.5 164.938,-1097.5 "/>
<text text-anchor="middle" x="192.7725" y="-1082.3" font-family="Times,serif" font-size="14.00" fill="#000000">input:</text>
<polyline fill="none" stroke="#000000" points="164.938,-1075.5 220.6069,-1075.5 "/>
<text text-anchor="middle" x="192.7725" y="-1060.3" font-family="Times,serif" font-size="14.00" fill="#000000">output:</text>
<polyline fill="none" stroke="#000000" points="220.6069,-1053.5 220.6069,-1097.5 "/>
<text text-anchor="middle" x="299.7554" y="-1082.3" font-family="Times,serif" font-size="14.00" fill="#000000">(None, None, None, 128)</text>
<polyline fill="none" stroke="#000000" points="220.6069,-1075.5 378.9038,-1075.5 "/>
<text text-anchor="middle" x="299.7554" y="-1060.3" font-family="Times,serif" font-size="14.00" fill="#000000">(None, None, None, 128)</text>
</g>
<!-- 4663840952&#45;&gt;4663868160 -->
<g id="edge5" class="edge">
<title>4663840952&#45;&gt;4663868160</title>
<path fill="none" stroke="#000000" d="M196.8433,-1134.3664C196.8433,-1126.1516 196.8433,-1116.6579 196.8433,-1107.7252"/>
<polygon fill="#000000" stroke="#000000" points="200.3434,-1107.6068 196.8433,-1097.6068 193.3434,-1107.6069 200.3434,-1107.6068"/>
</g>
<!-- 4684090840 -->
<g id="node7" class="node">
<title>4684090840</title>
<polygon fill="none" stroke="#000000" points="0,-972.5 0,-1016.5 393.6865,-1016.5 393.6865,-972.5 0,-972.5"/>
<text text-anchor="middle" x="89.8604" y="-990.3" font-family="Times,serif" font-size="14.00" fill="#000000">block2_pool: MaxPooling2D</text>
<polyline fill="none" stroke="#000000" points="179.7207,-972.5 179.7207,-1016.5 "/>
<text text-anchor="middle" x="207.5552" y="-1001.3" font-family="Times,serif" font-size="14.00" fill="#000000">input:</text>
<polyline fill="none" stroke="#000000" points="179.7207,-994.5 235.3896,-994.5 "/>
<text text-anchor="middle" x="207.5552" y="-979.3" font-family="Times,serif" font-size="14.00" fill="#000000">output:</text>
<polyline fill="none" stroke="#000000" points="235.3896,-972.5 235.3896,-1016.5 "/>
<text text-anchor="middle" x="314.5381" y="-1001.3" font-family="Times,serif" font-size="14.00" fill="#000000">(None, None, None, 128)</text>
<polyline fill="none" stroke="#000000" points="235.3896,-994.5 393.6865,-994.5 "/>
<text text-anchor="middle" x="314.5381" y="-979.3" font-family="Times,serif" font-size="14.00" fill="#000000">(None, None, None, 128)</text>
</g>
<!-- 4663868160&#45;&gt;4684090840 -->
<g id="edge6" class="edge">
<title>4663868160&#45;&gt;4684090840</title>
<path fill="none" stroke="#000000" d="M196.8433,-1053.3664C196.8433,-1045.1516 196.8433,-1035.6579 196.8433,-1026.7252"/>
<polygon fill="#000000" stroke="#000000" points="200.3434,-1026.6068 196.8433,-1016.6068 193.3434,-1026.6069 200.3434,-1026.6068"/>
</g>
<!-- 4684184712 -->
<g id="node8" class="node">
<title>4684184712</title>
<polygon fill="none" stroke="#000000" points="14.7827,-891.5 14.7827,-935.5 378.9038,-935.5 378.9038,-891.5 14.7827,-891.5"/>
<text text-anchor="middle" x="89.8604" y="-909.3" font-family="Times,serif" font-size="14.00" fill="#000000">block3_conv1: Conv2D</text>
<polyline fill="none" stroke="#000000" points="164.938,-891.5 164.938,-935.5 "/>
<text text-anchor="middle" x="192.7725" y="-920.3" font-family="Times,serif" font-size="14.00" fill="#000000">input:</text>
<polyline fill="none" stroke="#000000" points="164.938,-913.5 220.6069,-913.5 "/>
<text text-anchor="middle" x="192.7725" y="-898.3" font-family="Times,serif" font-size="14.00" fill="#000000">output:</text>
<polyline fill="none" stroke="#000000" points="220.6069,-891.5 220.6069,-935.5 "/>
<text text-anchor="middle" x="299.7554" y="-920.3" font-family="Times,serif" font-size="14.00" fill="#000000">(None, None, None, 128)</text>
<polyline fill="none" stroke="#000000" points="220.6069,-913.5 378.9038,-913.5 "/>
<text text-anchor="middle" x="299.7554" y="-898.3" font-family="Times,serif" font-size="14.00" fill="#000000">(None, None, None, 256)</text>
</g>
<!-- 4684090840&#45;&gt;4684184712 -->
<g id="edge7" class="edge">
<title>4684090840&#45;&gt;4684184712</title>
<path fill="none" stroke="#000000" d="M196.8433,-972.3664C196.8433,-964.1516 196.8433,-954.6579 196.8433,-945.7252"/>
<polygon fill="#000000" stroke="#000000" points="200.3434,-945.6068 196.8433,-935.6068 193.3434,-945.6069 200.3434,-945.6068"/>
</g>
<!-- 4684120248 -->
<g id="node9" class="node">
<title>4684120248</title>
<polygon fill="none" stroke="#000000" points="14.7827,-810.5 14.7827,-854.5 378.9038,-854.5 378.9038,-810.5 14.7827,-810.5"/>
<text text-anchor="middle" x="89.8604" y="-828.3" font-family="Times,serif" font-size="14.00" fill="#000000">block3_conv2: Conv2D</text>
<polyline fill="none" stroke="#000000" points="164.938,-810.5 164.938,-854.5 "/>
<text text-anchor="middle" x="192.7725" y="-839.3" font-family="Times,serif" font-size="14.00" fill="#000000">input:</text>
<polyline fill="none" stroke="#000000" points="164.938,-832.5 220.6069,-832.5 "/>
<text text-anchor="middle" x="192.7725" y="-817.3" font-family="Times,serif" font-size="14.00" fill="#000000">output:</text>
<polyline fill="none" stroke="#000000" points="220.6069,-810.5 220.6069,-854.5 "/>
<text text-anchor="middle" x="299.7554" y="-839.3" font-family="Times,serif" font-size="14.00" fill="#000000">(None, None, None, 256)</text>
<polyline fill="none" stroke="#000000" points="220.6069,-832.5 378.9038,-832.5 "/>
<text text-anchor="middle" x="299.7554" y="-817.3" font-family="Times,serif" font-size="14.00" fill="#000000">(None, None, None, 256)</text>
</g>
<!-- 4684184712&#45;&gt;4684120248 -->
<g id="edge8" class="edge">
<title>4684184712&#45;&gt;4684120248</title>
<path fill="none" stroke="#000000" d="M196.8433,-891.3664C196.8433,-883.1516 196.8433,-873.6579 196.8433,-864.7252"/>
<polygon fill="#000000" stroke="#000000" points="200.3434,-864.6068 196.8433,-854.6068 193.3434,-864.6069 200.3434,-864.6068"/>
</g>
<!-- 4684215128 -->
<g id="node10" class="node">
<title>4684215128</title>
<polygon fill="none" stroke="#000000" points="14.7827,-729.5 14.7827,-773.5 378.9038,-773.5 378.9038,-729.5 14.7827,-729.5"/>
<text text-anchor="middle" x="89.8604" y="-747.3" font-family="Times,serif" font-size="14.00" fill="#000000">block3_conv3: Conv2D</text>
<polyline fill="none" stroke="#000000" points="164.938,-729.5 164.938,-773.5 "/>
<text text-anchor="middle" x="192.7725" y="-758.3" font-family="Times,serif" font-size="14.00" fill="#000000">input:</text>
<polyline fill="none" stroke="#000000" points="164.938,-751.5 220.6069,-751.5 "/>
<text text-anchor="middle" x="192.7725" y="-736.3" font-family="Times,serif" font-size="14.00" fill="#000000">output:</text>
<polyline fill="none" stroke="#000000" points="220.6069,-729.5 220.6069,-773.5 "/>
<text text-anchor="middle" x="299.7554" y="-758.3" font-family="Times,serif" font-size="14.00" fill="#000000">(None, None, None, 256)</text>
<polyline fill="none" stroke="#000000" points="220.6069,-751.5 378.9038,-751.5 "/>
<text text-anchor="middle" x="299.7554" y="-736.3" font-family="Times,serif" font-size="14.00" fill="#000000">(None, None, None, 256)</text>
</g>
<!-- 4684120248&#45;&gt;4684215128 -->
<g id="edge9" class="edge">
<title>4684120248&#45;&gt;4684215128</title>
<path fill="none" stroke="#000000" d="M196.8433,-810.3664C196.8433,-802.1516 196.8433,-792.6579 196.8433,-783.7252"/>
<polygon fill="#000000" stroke="#000000" points="200.3434,-783.6068 196.8433,-773.6068 193.3434,-783.6069 200.3434,-783.6068"/>
</g>
<!-- 4684310960 -->
<g id="node11" class="node">
<title>4684310960</title>
<polygon fill="none" stroke="#000000" points="0,-648.5 0,-692.5 393.6865,-692.5 393.6865,-648.5 0,-648.5"/>
<text text-anchor="middle" x="89.8604" y="-666.3" font-family="Times,serif" font-size="14.00" fill="#000000">block3_pool: MaxPooling2D</text>
<polyline fill="none" stroke="#000000" points="179.7207,-648.5 179.7207,-692.5 "/>
<text text-anchor="middle" x="207.5552" y="-677.3" font-family="Times,serif" font-size="14.00" fill="#000000">input:</text>
<polyline fill="none" stroke="#000000" points="179.7207,-670.5 235.3896,-670.5 "/>
<text text-anchor="middle" x="207.5552" y="-655.3" font-family="Times,serif" font-size="14.00" fill="#000000">output:</text>
<polyline fill="none" stroke="#000000" points="235.3896,-648.5 235.3896,-692.5 "/>
<text text-anchor="middle" x="314.5381" y="-677.3" font-family="Times,serif" font-size="14.00" fill="#000000">(None, None, None, 256)</text>
<polyline fill="none" stroke="#000000" points="235.3896,-670.5 393.6865,-670.5 "/>
<text text-anchor="middle" x="314.5381" y="-655.3" font-family="Times,serif" font-size="14.00" fill="#000000">(None, None, None, 256)</text>
</g>
<!-- 4684215128&#45;&gt;4684310960 -->
<g id="edge10" class="edge">
<title>4684215128&#45;&gt;4684310960</title>
<path fill="none" stroke="#000000" d="M196.8433,-729.3664C196.8433,-721.1516 196.8433,-711.6579 196.8433,-702.7252"/>
<polygon fill="#000000" stroke="#000000" points="200.3434,-702.6068 196.8433,-692.6068 193.3434,-702.6069 200.3434,-702.6068"/>
</g>
<!-- 4684350576 -->
<g id="node12" class="node">
<title>4684350576</title>
<polygon fill="none" stroke="#000000" points="14.7827,-567.5 14.7827,-611.5 378.9038,-611.5 378.9038,-567.5 14.7827,-567.5"/>
<text text-anchor="middle" x="89.8604" y="-585.3" font-family="Times,serif" font-size="14.00" fill="#000000">block4_conv1: Conv2D</text>
<polyline fill="none" stroke="#000000" points="164.938,-567.5 164.938,-611.5 "/>
<text text-anchor="middle" x="192.7725" y="-596.3" font-family="Times,serif" font-size="14.00" fill="#000000">input:</text>
<polyline fill="none" stroke="#000000" points="164.938,-589.5 220.6069,-589.5 "/>
<text text-anchor="middle" x="192.7725" y="-574.3" font-family="Times,serif" font-size="14.00" fill="#000000">output:</text>
<polyline fill="none" stroke="#000000" points="220.6069,-567.5 220.6069,-611.5 "/>
<text text-anchor="middle" x="299.7554" y="-596.3" font-family="Times,serif" font-size="14.00" fill="#000000">(None, None, None, 256)</text>
<polyline fill="none" stroke="#000000" points="220.6069,-589.5 378.9038,-589.5 "/>
<text text-anchor="middle" x="299.7554" y="-574.3" font-family="Times,serif" font-size="14.00" fill="#000000">(None, None, None, 512)</text>
</g>
<!-- 4684310960&#45;&gt;4684350576 -->
<g id="edge11" class="edge">
<title>4684310960&#45;&gt;4684350576</title>
<path fill="none" stroke="#000000" d="M196.8433,-648.3664C196.8433,-640.1516 196.8433,-630.6579 196.8433,-621.7252"/>
<polygon fill="#000000" stroke="#000000" points="200.3434,-621.6068 196.8433,-611.6068 193.3434,-621.6069 200.3434,-621.6068"/>
</g>
<!-- 4684517840 -->
<g id="node13" class="node">
<title>4684517840</title>
<polygon fill="none" stroke="#000000" points="14.7827,-486.5 14.7827,-530.5 378.9038,-530.5 378.9038,-486.5 14.7827,-486.5"/>
<text text-anchor="middle" x="89.8604" y="-504.3" font-family="Times,serif" font-size="14.00" fill="#000000">block4_conv2: Conv2D</text>
<polyline fill="none" stroke="#000000" points="164.938,-486.5 164.938,-530.5 "/>
<text text-anchor="middle" x="192.7725" y="-515.3" font-family="Times,serif" font-size="14.00" fill="#000000">input:</text>
<polyline fill="none" stroke="#000000" points="164.938,-508.5 220.6069,-508.5 "/>
<text text-anchor="middle" x="192.7725" y="-493.3" font-family="Times,serif" font-size="14.00" fill="#000000">output:</text>
<polyline fill="none" stroke="#000000" points="220.6069,-486.5 220.6069,-530.5 "/>
<text text-anchor="middle" x="299.7554" y="-515.3" font-family="Times,serif" font-size="14.00" fill="#000000">(None, None, None, 512)</text>
<polyline fill="none" stroke="#000000" points="220.6069,-508.5 378.9038,-508.5 "/>
<text text-anchor="middle" x="299.7554" y="-493.3" font-family="Times,serif" font-size="14.00" fill="#000000">(None, None, None, 512)</text>
</g>
<!-- 4684350576&#45;&gt;4684517840 -->
<g id="edge12" class="edge">
<title>4684350576&#45;&gt;4684517840</title>
<path fill="none" stroke="#000000" d="M196.8433,-567.3664C196.8433,-559.1516 196.8433,-549.6579 196.8433,-540.7252"/>
<polygon fill="#000000" stroke="#000000" points="200.3434,-540.6068 196.8433,-530.6068 193.3434,-540.6069 200.3434,-540.6068"/>
</g>
<!-- 4684552736 -->
<g id="node14" class="node">
<title>4684552736</title>
<polygon fill="none" stroke="#000000" points="14.7827,-405.5 14.7827,-449.5 378.9038,-449.5 378.9038,-405.5 14.7827,-405.5"/>
<text text-anchor="middle" x="89.8604" y="-423.3" font-family="Times,serif" font-size="14.00" fill="#000000">block4_conv3: Conv2D</text>
<polyline fill="none" stroke="#000000" points="164.938,-405.5 164.938,-449.5 "/>
<text text-anchor="middle" x="192.7725" y="-434.3" font-family="Times,serif" font-size="14.00" fill="#000000">input:</text>
<polyline fill="none" stroke="#000000" points="164.938,-427.5 220.6069,-427.5 "/>
<text text-anchor="middle" x="192.7725" y="-412.3" font-family="Times,serif" font-size="14.00" fill="#000000">output:</text>
<polyline fill="none" stroke="#000000" points="220.6069,-405.5 220.6069,-449.5 "/>
<text text-anchor="middle" x="299.7554" y="-434.3" font-family="Times,serif" font-size="14.00" fill="#000000">(None, None, None, 512)</text>
<polyline fill="none" stroke="#000000" points="220.6069,-427.5 378.9038,-427.5 "/>
<text text-anchor="middle" x="299.7554" y="-412.3" font-family="Times,serif" font-size="14.00" fill="#000000">(None, None, None, 512)</text>
</g>
<!-- 4684517840&#45;&gt;4684552736 -->
<g id="edge13" class="edge">
<title>4684517840&#45;&gt;4684552736</title>
<path fill="none" stroke="#000000" d="M196.8433,-486.3664C196.8433,-478.1516 196.8433,-468.6579 196.8433,-459.7252"/>
<polygon fill="#000000" stroke="#000000" points="200.3434,-459.6068 196.8433,-449.6068 193.3434,-459.6069 200.3434,-459.6068"/>
</g>
<!-- 4684609688 -->
<g id="node15" class="node">
<title>4684609688</title>
<polygon fill="none" stroke="#000000" points="0,-324.5 0,-368.5 393.6865,-368.5 393.6865,-324.5 0,-324.5"/>
<text text-anchor="middle" x="89.8604" y="-342.3" font-family="Times,serif" font-size="14.00" fill="#000000">block4_pool: MaxPooling2D</text>
<polyline fill="none" stroke="#000000" points="179.7207,-324.5 179.7207,-368.5 "/>
<text text-anchor="middle" x="207.5552" y="-353.3" font-family="Times,serif" font-size="14.00" fill="#000000">input:</text>
<polyline fill="none" stroke="#000000" points="179.7207,-346.5 235.3896,-346.5 "/>
<text text-anchor="middle" x="207.5552" y="-331.3" font-family="Times,serif" font-size="14.00" fill="#000000">output:</text>
<polyline fill="none" stroke="#000000" points="235.3896,-324.5 235.3896,-368.5 "/>
<text text-anchor="middle" x="314.5381" y="-353.3" font-family="Times,serif" font-size="14.00" fill="#000000">(None, None, None, 512)</text>
<polyline fill="none" stroke="#000000" points="235.3896,-346.5 393.6865,-346.5 "/>
<text text-anchor="middle" x="314.5381" y="-331.3" font-family="Times,serif" font-size="14.00" fill="#000000">(None, None, None, 512)</text>
</g>
<!-- 4684552736&#45;&gt;4684609688 -->
<g id="edge14" class="edge">
<title>4684552736&#45;&gt;4684609688</title>
<path fill="none" stroke="#000000" d="M196.8433,-405.3664C196.8433,-397.1516 196.8433,-387.6579 196.8433,-378.7252"/>
<polygon fill="#000000" stroke="#000000" points="200.3434,-378.6068 196.8433,-368.6068 193.3434,-378.6069 200.3434,-378.6068"/>
</g>
<!-- 4684772688 -->
<g id="node16" class="node">
<title>4684772688</title>
<polygon fill="none" stroke="#000000" points="14.7827,-243.5 14.7827,-287.5 378.9038,-287.5 378.9038,-243.5 14.7827,-243.5"/>
<text text-anchor="middle" x="89.8604" y="-261.3" font-family="Times,serif" font-size="14.00" fill="#000000">block5_conv1: Conv2D</text>
<polyline fill="none" stroke="#000000" points="164.938,-243.5 164.938,-287.5 "/>
<text text-anchor="middle" x="192.7725" y="-272.3" font-family="Times,serif" font-size="14.00" fill="#000000">input:</text>
<polyline fill="none" stroke="#000000" points="164.938,-265.5 220.6069,-265.5 "/>
<text text-anchor="middle" x="192.7725" y="-250.3" font-family="Times,serif" font-size="14.00" fill="#000000">output:</text>
<polyline fill="none" stroke="#000000" points="220.6069,-243.5 220.6069,-287.5 "/>
<text text-anchor="middle" x="299.7554" y="-272.3" font-family="Times,serif" font-size="14.00" fill="#000000">(None, None, None, 512)</text>
<polyline fill="none" stroke="#000000" points="220.6069,-265.5 378.9038,-265.5 "/>
<text text-anchor="middle" x="299.7554" y="-250.3" font-family="Times,serif" font-size="14.00" fill="#000000">(None, None, None, 512)</text>
</g>
<!-- 4684609688&#45;&gt;4684772688 -->
<g id="edge15" class="edge">
<title>4684609688&#45;&gt;4684772688</title>
<path fill="none" stroke="#000000" d="M196.8433,-324.3664C196.8433,-316.1516 196.8433,-306.6579 196.8433,-297.7252"/>
<polygon fill="#000000" stroke="#000000" points="200.3434,-297.6068 196.8433,-287.6068 193.3434,-297.6069 200.3434,-297.6068"/>
</g>
<!-- 4684809832 -->
<g id="node17" class="node">
<title>4684809832</title>
<polygon fill="none" stroke="#000000" points="14.7827,-162.5 14.7827,-206.5 378.9038,-206.5 378.9038,-162.5 14.7827,-162.5"/>
<text text-anchor="middle" x="89.8604" y="-180.3" font-family="Times,serif" font-size="14.00" fill="#000000">block5_conv2: Conv2D</text>
<polyline fill="none" stroke="#000000" points="164.938,-162.5 164.938,-206.5 "/>
<text text-anchor="middle" x="192.7725" y="-191.3" font-family="Times,serif" font-size="14.00" fill="#000000">input:</text>
<polyline fill="none" stroke="#000000" points="164.938,-184.5 220.6069,-184.5 "/>
<text text-anchor="middle" x="192.7725" y="-169.3" font-family="Times,serif" font-size="14.00" fill="#000000">output:</text>
<polyline fill="none" stroke="#000000" points="220.6069,-162.5 220.6069,-206.5 "/>
<text text-anchor="middle" x="299.7554" y="-191.3" font-family="Times,serif" font-size="14.00" fill="#000000">(None, None, None, 512)</text>
<polyline fill="none" stroke="#000000" points="220.6069,-184.5 378.9038,-184.5 "/>
<text text-anchor="middle" x="299.7554" y="-169.3" font-family="Times,serif" font-size="14.00" fill="#000000">(None, None, None, 512)</text>
</g>
<!-- 4684772688&#45;&gt;4684809832 -->
<g id="edge16" class="edge">
<title>4684772688&#45;&gt;4684809832</title>
<path fill="none" stroke="#000000" d="M196.8433,-243.3664C196.8433,-235.1516 196.8433,-225.6579 196.8433,-216.7252"/>
<polygon fill="#000000" stroke="#000000" points="200.3434,-216.6068 196.8433,-206.6068 193.3434,-216.6069 200.3434,-216.6068"/>
</g>
<!-- 4684907520 -->
<g id="node18" class="node">
<title>4684907520</title>
<polygon fill="none" stroke="#000000" points="14.7827,-81.5 14.7827,-125.5 378.9038,-125.5 378.9038,-81.5 14.7827,-81.5"/>
<text text-anchor="middle" x="89.8604" y="-99.3" font-family="Times,serif" font-size="14.00" fill="#000000">block5_conv3: Conv2D</text>
<polyline fill="none" stroke="#000000" points="164.938,-81.5 164.938,-125.5 "/>
<text text-anchor="middle" x="192.7725" y="-110.3" font-family="Times,serif" font-size="14.00" fill="#000000">input:</text>
<polyline fill="none" stroke="#000000" points="164.938,-103.5 220.6069,-103.5 "/>
<text text-anchor="middle" x="192.7725" y="-88.3" font-family="Times,serif" font-size="14.00" fill="#000000">output:</text>
<polyline fill="none" stroke="#000000" points="220.6069,-81.5 220.6069,-125.5 "/>
<text text-anchor="middle" x="299.7554" y="-110.3" font-family="Times,serif" font-size="14.00" fill="#000000">(None, None, None, 512)</text>
<polyline fill="none" stroke="#000000" points="220.6069,-103.5 378.9038,-103.5 "/>
<text text-anchor="middle" x="299.7554" y="-88.3" font-family="Times,serif" font-size="14.00" fill="#000000">(None, None, None, 512)</text>
</g>
<!-- 4684809832&#45;&gt;4684907520 -->
<g id="edge17" class="edge">
<title>4684809832&#45;&gt;4684907520</title>
<path fill="none" stroke="#000000" d="M196.8433,-162.3664C196.8433,-154.1516 196.8433,-144.6579 196.8433,-135.7252"/>
<polygon fill="#000000" stroke="#000000" points="200.3434,-135.6068 196.8433,-125.6068 193.3434,-135.6069 200.3434,-135.6068"/>
</g>
<!-- 4685007168 -->
<g id="node19" class="node">
<title>4685007168</title>
<polygon fill="none" stroke="#000000" points="0,-.5 0,-44.5 393.6865,-44.5 393.6865,-.5 0,-.5"/>
<text text-anchor="middle" x="89.8604" y="-18.3" font-family="Times,serif" font-size="14.00" fill="#000000">block5_pool: MaxPooling2D</text>
<polyline fill="none" stroke="#000000" points="179.7207,-.5 179.7207,-44.5 "/>
<text text-anchor="middle" x="207.5552" y="-29.3" font-family="Times,serif" font-size="14.00" fill="#000000">input:</text>
<polyline fill="none" stroke="#000000" points="179.7207,-22.5 235.3896,-22.5 "/>
<text text-anchor="middle" x="207.5552" y="-7.3" font-family="Times,serif" font-size="14.00" fill="#000000">output:</text>
<polyline fill="none" stroke="#000000" points="235.3896,-.5 235.3896,-44.5 "/>
<text text-anchor="middle" x="314.5381" y="-29.3" font-family="Times,serif" font-size="14.00" fill="#000000">(None, None, None, 512)</text>
<polyline fill="none" stroke="#000000" points="235.3896,-22.5 393.6865,-22.5 "/>
<text text-anchor="middle" x="314.5381" y="-7.3" font-family="Times,serif" font-size="14.00" fill="#000000">(None, None, None, 512)</text>
</g>
<!-- 4684907520&#45;&gt;4685007168 -->
<g id="edge18" class="edge">
<title>4684907520&#45;&gt;4685007168</title>
<path fill="none" stroke="#000000" d="M196.8433,-81.3664C196.8433,-73.1516 196.8433,-63.6579 196.8433,-54.7252"/>
<polygon fill="#000000" stroke="#000000" points="200.3434,-54.6068 196.8433,-44.6068 193.3434,-54.6069 200.3434,-54.6068"/>
</g>
</g>
</svg>
